<?xml version="1.0" encoding="UTF-8"?>
<svg id="Layer_2" data-name="Layer 2" xmlns="http://www.w3.org/2000/svg" viewBox="0 0 299.58 388.96">
  <g id="Layer_3" data-name="Layer 3">
    <path d="M299.2,164.19l-1.93-13.38-3.11-13.82-3.86-14.64-3.39-12.05-3.67-11.17-4.99-12.19-5.08-9.95-8.93-13.76-9.92-12.11-9.49-9.45-9.31-7.78-11.09-7.8-12.32-7.29-12.03-6.44-10.73-4.99-8.7-3.21-5.77-1.63-6.15-1.3-7.84-.99-8.45-.25-10.31.76-10,1.51-13.93,2.87-12.29,3.39-10.16,3.76-10.36,5.01-9.96,6.37-10.7,8.82-7.42,7.44-9.73,11.2-9.7,11.85-6.77,10.22-6.2,12.87-3.06,12.01-1.76,9.13-1.93,16.87-2.12,10.35-2.29,7.78-2.8,8.11-2.11,4.45-2.97,6.2-1.77,6.45-2.58,11.28-1.46,12.69-.08,12.09,1.41,13.36,3.4,13.41,4.04,10.38,4.61,9.01,7.2,10.61,8.18,9.2,20.72,19.93,22.29,20.79,8.62,6.64,8.22,4.78,12.21,6.19,14.08,7.19,52.73,28.39,43.66,21.95,10.35,3.17,6.29.48,7.35-1.31,8.11-4.38,5.49-5.11,6.32-7.49,5.92-10.51,5.43-14.96,5.91-19.07,3.33-10.8,5.24-17.2,2.32-10.34,1.98-12.24,1.37-12.1.44-14.47-1.25-14.29-.65-9.03.85-10.23,1.45-6.02,2.97-7.5,3.51-6.11,2.46-5.02,2.2-8.07.82-9.05-.38-9.46ZM169.54,200.31l-7.67-1.33-8-3-6.56-3.77-8.19-5.78-3.26-4.44-2-4.93v-8.07l1.29-4.79,3.71-6.21,7.02-7.78,3.9-3.1,8.09-3.88,8.7-1.01,11.3,2.76,10.4,3.4,11.73,6.53,8.87,6.32,6,5.75,4.03,4.28.8,3.99-2.83,5.72-4,6-5.68,4.59-7.32,3.41-9,3-11,2-10.33.33ZM262.86,316.82l-2.98,7.17-6.96,7.04-8.04,4.96-8,3-11.56.52-9.49-1.81-9.95-4.71-8.38-5.19-5.62-7.81-4.8-9.63.8-4.37,2.27-4.62,8.73-7.38,8.62-6.21,8.33-5.16,9.53-4.53,10.26-2.53,5.26.44,4.37,2.74,5.03,5.09,6.59,8.17,4,7,2.76,9.58-.78,8.25ZM290.2,180.76l-1.7,7.06-2.69,6.66-3.46,7.42-3.48,7.08-3.94,2.42-1.75.05-1.62-1.73-1.68-2.73-5-5-4.58-4.1-5.39-3.41-1.84-2.27v-2.05l2.3-3.73,4.93-4.75,7.58-6.69,9-6,4.79-3.71,3.14-1.08,2.66,1.08,1.41,2.17,1.32,7.1v6.22Z"/>
  </g>
</svg>